<svg width="290" height="78" viewBox="0 0 290 78" fill="none" xmlns="http://www.w3.org/2000/svg">
<path d="M26.304 72.808C19.84 72.808 14.464 70.376 10.176 65.512C5.952 60.584 3.84 54.6 3.84 47.56V30.76C3.84 29.224 3.872 28.104 3.936 27.4C4.064 26.696 4.352 25.864 4.8 24.904C5.696 23.176 8.192 22.312 12.288 22.312C16.768 22.312 19.392 23.528 20.16 25.96C20.544 26.984 20.736 28.616 20.736 30.856V47.656C20.736 50.28 21.472 52.328 22.944 53.8C24.48 55.272 26.496 56.008 28.992 56.008C31.552 56.008 33.6 55.24 35.136 53.704C36.736 52.168 37.536 50.152 37.536 47.656V30.664C37.536 29.192 37.568 28.104 37.632 27.4C37.76 26.632 38.08 25.768 38.592 24.808C39.424 23.144 41.888 22.312 45.984 22.312C50.016 22.312 52.48 23.176 53.376 24.904C53.824 25.864 54.08 26.728 54.144 27.496C54.272 28.2 54.336 29.288 54.336 30.76V64.744C54.336 66.152 54.272 67.24 54.144 68.008C54.08 68.712 53.792 69.512 53.28 70.408C52.32 72.072 49.856 72.904 45.888 72.904C41.984 72.904 39.584 72.136 38.688 70.6C38.048 69.512 37.728 68.2 37.728 66.664C37.472 67.112 36.896 67.752 36 68.584C35.104 69.416 34.24 70.12 33.408 70.696C31.232 72.104 28.864 72.808 26.304 72.808ZM91.4348 39.4L85.1948 39.016V52.264C85.1948 53.992 85.4508 55.24 85.9628 56.008C86.5388 56.776 87.5628 57.16 89.0348 57.16C90.5708 57.16 91.7228 57.224 92.4908 57.352C93.3228 57.416 94.1868 57.704 95.0828 58.216C96.5548 59.048 97.2908 61.192 97.2908 64.648C97.2908 68.68 96.3948 71.144 94.6028 72.04C93.6428 72.488 92.7788 72.776 92.0108 72.904C91.3068 72.968 90.2508 73 88.8428 73C82.1868 73 77.1308 71.496 73.6748 68.488C70.2188 65.48 68.4908 60.392 68.4908 53.224V39.016C67.2748 39.208 65.9628 39.304 64.5547 39.304C63.1468 39.304 61.9628 38.76 61.0028 37.672C60.1068 36.584 59.6588 34.728 59.6588 32.104C59.6588 29.48 59.8188 27.592 60.1388 26.44C60.4588 25.224 60.9068 24.36 61.4828 23.848C62.5068 23.016 63.7868 22.6 65.3228 22.6L68.4908 22.984V13.096C68.4908 11.624 68.5228 10.536 68.5868 9.832C68.7148 9.128 69.0348 8.36 69.5468 7.528C70.3788 5.928 72.8428 5.128 76.9388 5.128C81.2908 5.128 83.8828 6.312 84.7148 8.68C85.0348 9.704 85.1948 11.336 85.1948 13.576V22.984C88.0108 22.728 90.1228 22.6 91.5308 22.6C93.0028 22.6 94.0908 22.664 94.7948 22.792C95.5628 22.856 96.4268 23.144 97.3868 23.656C99.0508 24.488 99.8828 26.952 99.8828 31.048C99.8828 35.08 99.0188 37.544 97.2908 38.44C96.3308 38.888 95.4668 39.176 94.6988 39.304C93.9948 39.368 92.9068 39.4 91.4348 39.4ZM138.016 27.784C138.4 24.2 140.928 22.408 145.6 22.408C148.096 22.408 149.952 22.6 151.168 22.984C152.384 23.368 153.216 24.04 153.664 25C154.176 25.96 154.464 26.824 154.528 27.592C154.656 28.296 154.72 29.384 154.72 30.856V64.456C154.72 65.928 154.656 67.048 154.528 67.816C154.464 68.52 154.208 69.352 153.76 70.312C152.864 71.976 150.656 72.808 147.136 72.808C143.68 72.808 141.344 72.392 140.128 71.56C138.976 70.664 138.304 69.384 138.112 67.72C135.744 71.112 131.776 72.808 126.208 72.808C120.704 72.808 115.584 70.28 110.848 65.224C106.112 60.168 103.744 54.312 103.744 47.656C103.744 40.936 106.112 35.08 110.848 30.088C115.648 25.032 120.896 22.504 126.592 22.504C128.768 22.504 130.752 22.888 132.544 23.656C134.336 24.424 135.584 25.16 136.288 25.864C136.992 26.504 137.568 27.144 138.016 27.784ZM120.544 47.752C120.544 49.864 121.376 51.784 123.04 53.512C124.704 55.176 126.72 56.008 129.088 56.008C131.456 56.008 133.408 55.144 134.944 53.416C136.544 51.688 137.344 49.8 137.344 47.752C137.344 45.64 136.576 43.688 135.04 41.896C133.568 40.104 131.552 39.208 128.992 39.208C126.496 39.208 124.448 40.104 122.848 41.896C121.312 43.688 120.544 45.64 120.544 47.752ZM224.867 39.4L218.627 39.016V52.264C218.627 53.992 218.883 55.24 219.395 56.008C219.971 56.776 220.995 57.16 222.467 57.16C224.003 57.16 225.155 57.224 225.923 57.352C226.755 57.416 227.587 57.704 228.419 58.216C229.955 59.048 230.723 61.192 230.723 64.648C230.723 68.68 229.827 71.144 228.035 72.04C227.075 72.488 226.211 72.776 225.443 72.904C224.739 72.968 223.683 73 222.275 73C215.875 73 210.883 71.336 207.299 68.008C203.715 64.68 201.923 59.752 201.923 53.224V39.016C198.851 39.272 196.291 39.4 194.243 39.4L185.507 39.016V52.264C185.507 53.992 185.763 55.24 186.275 56.008C186.851 56.776 187.875 57.16 189.347 57.16C190.883 57.16 192.035 57.224 192.803 57.352C193.635 57.416 194.499 57.704 195.395 58.216C196.867 59.048 197.603 61.192 197.603 64.648C197.603 68.68 196.707 71.144 194.915 72.04C193.955 72.488 193.091 72.776 192.323 72.904C191.619 72.968 190.563 73 189.155 73C182.755 73 177.763 71.336 174.179 68.008C170.595 64.68 168.803 59.752 168.803 53.224V39.016C167.523 39.208 166.179 39.304 164.771 39.304C163.427 39.304 162.275 38.76 161.315 37.672C160.419 36.584 159.971 34.728 159.971 32.104C159.971 29.48 160.131 27.592 160.451 26.44C160.771 25.224 161.219 24.36 161.795 23.848C162.819 23.016 164.099 22.6 165.635 22.6L168.803 22.984V13.096C168.803 11.624 168.835 10.536 168.899 9.832C169.027 9.128 169.347 8.36 169.859 7.528C170.691 5.928 173.155 5.128 177.251 5.128C181.603 5.128 184.195 6.312 185.027 8.68C185.347 9.704 185.507 11.336 185.507 13.576V22.696C188.515 22.632 191.363 22.6 194.051 22.6L201.923 22.696V13.096C201.923 11.624 201.955 10.536 202.019 9.832C202.147 9.128 202.435 8.36 202.883 7.528C203.779 5.928 206.275 5.128 210.371 5.128C214.723 5.128 217.283 6.312 218.051 8.68C218.435 9.704 218.627 11.336 218.627 13.576V22.984C221.443 22.728 223.555 22.6 224.963 22.6C226.435 22.6 227.523 22.664 228.227 22.792C228.995 22.856 229.827 23.144 230.723 23.656C232.451 24.488 233.315 26.952 233.315 31.048C233.315 35.08 232.451 37.544 230.723 38.44C229.763 38.888 228.899 39.176 228.131 39.304C227.427 39.368 226.339 39.4 224.867 39.4ZM287.358 41.704C287.358 45.608 286.366 48.52 284.382 50.44C282.462 52.296 280.318 53.224 277.95 53.224H255.198C255.198 55.016 256.254 56.52 258.366 57.736C260.478 58.952 262.59 59.56 264.702 59.56C268.414 59.56 271.326 59.176 273.438 58.408L274.494 58.024C276.03 57.32 277.31 56.968 278.334 56.968C280.382 56.968 282.142 58.408 283.614 61.288C284.446 63.016 284.862 64.488 284.862 65.704C284.862 71.4 278.046 74.248 264.414 74.248C259.678 74.248 255.454 73.448 251.742 71.848C248.094 70.184 245.246 68.008 243.198 65.32C239.166 60.136 237.15 54.344 237.15 47.944C237.15 39.88 239.742 33.448 244.926 28.648C250.174 23.784 256.702 21.352 264.51 21.352C273.406 21.352 279.934 24.488 284.094 30.76C286.27 34.088 287.358 37.736 287.358 41.704ZM267.102 44.488C269.534 44.488 270.75 43.464 270.75 41.416C270.75 39.944 270.174 38.76 269.022 37.864C267.934 36.968 266.334 36.52 264.222 36.52C262.174 36.52 260.126 37.384 258.078 39.112C256.03 40.776 255.006 42.568 255.006 44.488H267.102Z" fill="#DBEAFE"/>
<path d="M117.466 7.88C117.391 8.95333 117.233 9.98 116.99 10.96C116.747 11.9307 116.393 12.8173 115.926 13.62C115.394 14.4973 114.699 15.258 113.84 15.902C112.981 16.546 111.95 16.9847 110.746 17.218L109.766 16.322C110.214 16.2193 110.681 16.0793 111.166 15.902C111.651 15.7153 112.123 15.4727 112.58 15.174C113.037 14.8847 113.467 14.5347 113.868 14.124C114.269 13.704 114.61 13.2047 114.89 12.626C115.17 12.066 115.413 11.4593 115.618 10.806C115.823 10.1527 115.931 9.588 115.94 9.112H108.926L109.248 12.108L107.946 12.304L107.442 7.88H111.67V6.634H113.14V7.88H117.466ZM130.072 7.292C130.044 7.992 129.904 8.818 129.652 9.77C129.4 10.722 128.994 11.674 128.434 12.626C127.883 13.5687 127.155 14.4507 126.25 15.272C125.345 16.084 124.229 16.7 122.904 17.12L121.84 16.238C122.876 15.8927 123.767 15.4447 124.514 14.894C125.27 14.3433 125.928 13.718 126.488 13.018L126.516 12.976C126.292 12.7147 125.961 12.444 125.522 12.164C125.083 11.884 124.575 11.6647 123.996 11.506L124.766 10.582C125.326 10.7127 125.825 10.8853 126.264 11.1C126.703 11.3147 127.057 11.5433 127.328 11.786C127.627 11.31 127.879 10.778 128.084 10.19C128.299 9.602 128.434 9.042 128.49 8.51H124.85C124.617 9.19133 124.248 9.85867 123.744 10.512C123.249 11.1653 122.624 11.716 121.868 12.164L120.846 11.52C121.761 10.8667 122.47 10.106 122.974 9.238C123.487 8.36067 123.8 7.48333 123.912 6.606L125.284 6.872L125.2 7.292H130.072ZM138.968 11.436L137.75 11.688C137.75 11.296 137.713 10.9367 137.638 10.61C137.573 10.274 137.428 9.93333 137.204 9.588L138.198 9.224C138.45 9.504 138.641 9.84 138.772 10.232C138.903 10.6147 138.968 11.016 138.968 11.436ZM136.672 11.898L135.524 12.36C135.487 11.968 135.393 11.604 135.244 11.268C135.104 10.932 134.889 10.6007 134.6 10.274L135.636 9.812C135.935 10.12 136.163 10.4467 136.322 10.792C136.481 11.1373 136.597 11.506 136.672 11.898ZM142.58 9.77C142.421 10.106 142.286 10.4233 142.174 10.722C142.071 11.0113 141.973 11.3007 141.88 11.59C141.777 11.87 141.679 12.1547 141.586 12.444C141.493 12.7333 141.385 13.032 141.264 13.34C140.937 14.18 140.457 14.9267 139.822 15.58C139.187 16.2333 138.315 16.7047 137.204 16.994L136.336 16.056C137.176 15.832 137.918 15.4867 138.562 15.02C139.215 14.5533 139.733 13.8393 140.116 12.878C140.209 12.6353 140.303 12.3787 140.396 12.108C140.499 11.828 140.601 11.534 140.704 11.226C140.807 10.9273 140.909 10.6193 141.012 10.302C141.115 9.97533 141.227 9.644 141.348 9.308L142.58 9.77ZM155.942 7.922H147.892V6.704H155.942V7.922ZM157.118 10.736H152.848C152.848 10.988 152.843 11.2913 152.834 11.646C152.825 11.9913 152.797 12.3553 152.75 12.738C152.703 13.1207 152.629 13.5127 152.526 13.914C152.423 14.3153 152.274 14.698 152.078 15.062C151.863 15.4447 151.565 15.8273 151.182 16.21C150.809 16.5927 150.342 16.882 149.782 17.078L148.746 16.182C149.343 15.9207 149.819 15.5987 150.174 15.216C150.529 14.8333 150.795 14.404 150.972 13.928C151.159 13.4613 151.275 12.9573 151.322 12.416C151.378 11.8747 151.406 11.3147 151.406 10.736H146.716V9.504H157.118V10.736Z" fill="#DBEAFE"/>
</svg>
